<svg width="1025" height="246" viewBox="0 0 1025 246" fill="none" xmlns="http://www.w3.org/2000/svg">
<g clip-path="url(#clip0_5720_59)">
<mask id="mask0_5720_59" style="mask-type:luminance" maskUnits="userSpaceOnUse" x="0" y="0" width="1025" height="246">
<path d="M1025 0H0V246H1025V0Z" fill="white"/>
</mask>
<g mask="url(#mask0_5720_59)">
<path d="M608.895 121.483C608.895 69.9935 566.618 28.25 514.457 28.25C462.297 28.25 420.034 69.9935 420.034 121.483C420.034 172.972 462.311 214.716 514.471 214.716C527.24 214.716 539.404 212.197 550.512 207.659L573.502 230.75L602.56 202.893L584.61 183.87C599.702 167.381 608.895 145.499 608.895 121.483ZM514.471 175.917C493.579 175.917 476.657 158.802 476.657 137.702C476.657 123.759 480.444 100.753 499.422 84.1214C494.381 99.2737 499.492 114.91 499.492 114.91C508.178 108.394 519.525 74.0056 510.698 52.3372C529.606 72.7252 538.433 109.66 534.646 133.875C542.206 122.408 541.023 100.824 541.023 100.824C549.85 114.839 552.3 123.617 552.3 137.702C552.286 158.816 535.349 175.917 514.471 175.917Z" fill="#FF4F00"/>
<path d="M118.297 138.219C118.297 136.344 117.984 134.672 117.359 133.203C116.734 131.734 115.703 130.422 114.266 129.266C112.859 128.078 110.953 126.984 108.547 125.984C106.172 124.953 103.203 123.938 99.6406 122.938C96.2344 121.969 93.1562 120.906 90.4062 119.75C87.6562 118.594 85.2969 117.266 83.3281 115.766C81.3906 114.266 79.9062 112.516 78.875 110.516C77.8438 108.484 77.3281 106.125 77.3281 103.438C77.3281 100.812 77.8906 98.4219 79.0156 96.2656C80.1406 94.1094 81.7188 92.25 83.75 90.6875C85.8125 89.125 88.2344 87.9219 91.0156 87.0781C93.8281 86.2344 96.9062 85.8125 100.25 85.8125C105.031 85.8125 109.156 86.7188 112.625 88.5312C116.125 90.3438 118.828 92.7969 120.734 95.8906C122.672 98.9531 123.641 102.391 123.641 106.203H117.875C117.875 103.234 117.172 100.594 115.766 98.2812C114.391 95.9375 112.391 94.1094 109.766 92.7969C107.172 91.4531 104 90.7812 100.25 90.7812C96.5 90.7812 93.3438 91.3594 90.7812 92.5156C88.25 93.6406 86.3281 95.1562 85.0156 97.0625C83.7344 98.9375 83.0938 101.031 83.0938 103.344C83.0938 104.969 83.4062 106.469 84.0312 107.844C84.6562 109.188 85.6719 110.453 87.0781 111.641C88.5156 112.797 90.4062 113.891 92.75 114.922C95.0938 115.922 97.9844 116.875 101.422 117.781C105.047 118.781 108.266 119.891 111.078 121.109C113.891 122.328 116.266 123.734 118.203 125.328C120.141 126.891 121.609 128.719 122.609 130.812C123.609 132.906 124.109 135.344 124.109 138.125C124.109 140.906 123.516 143.406 122.328 145.625C121.172 147.812 119.531 149.672 117.406 151.203C115.312 152.734 112.828 153.906 109.953 154.719C107.109 155.531 104 155.938 100.625 155.938C97.5938 155.938 94.5781 155.547 91.5781 154.766C88.5781 153.984 85.8281 152.781 83.3281 151.156C80.8594 149.5 78.875 147.375 77.375 144.781C75.9062 142.188 75.1719 139.094 75.1719 135.5H80.8906C80.8906 138.375 81.4688 140.797 82.625 142.766C83.7812 144.734 85.3125 146.328 87.2188 147.547C89.1562 148.766 91.2812 149.656 93.5938 150.219C95.9375 150.75 98.2812 151.016 100.625 151.016C104.219 151.016 107.328 150.484 109.953 149.422C112.609 148.359 114.656 146.875 116.094 144.969C117.562 143.031 118.297 140.781 118.297 138.219ZM168.219 174.5V114.031L168.594 104.281H173.797V174.5H168.219ZM133.016 130.156V129.172C133.016 125.234 133.453 121.688 134.328 118.531C135.203 115.344 136.484 112.625 138.172 110.375C139.891 108.094 141.953 106.359 144.359 105.172C146.797 103.953 149.562 103.344 152.656 103.344C155.625 103.344 158.266 103.828 160.578 104.797C162.891 105.766 164.875 107.156 166.531 108.969C168.219 110.781 169.578 112.938 170.609 115.438C171.641 117.938 172.391 120.719 172.859 123.781V136.297C172.484 139.172 171.781 141.812 170.75 144.219C169.75 146.594 168.406 148.672 166.719 150.453C165.031 152.203 163 153.562 160.625 154.531C158.281 155.469 155.594 155.938 152.562 155.938C149.5 155.938 146.75 155.312 144.312 154.062C141.906 152.812 139.859 151.047 138.172 148.766C136.516 146.453 135.234 143.719 134.328 140.562C133.453 137.406 133.016 133.938 133.016 130.156ZM138.641 129.172V130.156C138.641 133.125 138.938 135.875 139.531 138.406C140.156 140.938 141.078 143.156 142.297 145.062C143.516 146.969 145.062 148.453 146.938 149.516C148.844 150.578 151.062 151.109 153.594 151.109C156.812 151.109 159.531 150.484 161.75 149.234C163.969 147.984 165.734 146.328 167.047 144.266C168.391 142.203 169.359 139.953 169.953 137.516V122.938C169.641 121.344 169.109 119.688 168.359 117.969C167.609 116.25 166.594 114.656 165.312 113.188C164.062 111.688 162.484 110.484 160.578 109.578C158.672 108.641 156.375 108.172 153.688 108.172C151.125 108.172 148.891 108.719 146.984 109.812C145.109 110.875 143.547 112.359 142.297 114.266C141.078 116.172 140.156 118.391 139.531 120.922C138.938 123.453 138.641 126.203 138.641 129.172ZM221.281 143.281V104.281H226.906V155H221.516L221.281 143.281ZM222.312 133.906L225.219 133.812C225.219 137 224.844 139.938 224.094 142.625C223.344 145.312 222.172 147.656 220.578 149.656C218.984 151.656 216.922 153.203 214.391 154.297C211.859 155.391 208.812 155.938 205.25 155.938C202.781 155.938 200.516 155.594 198.453 154.906C196.422 154.188 194.672 153.062 193.203 151.531C191.734 150 190.594 148.016 189.781 145.578C189 143.141 188.609 140.188 188.609 136.719V104.281H194.188V136.812C194.188 139.531 194.484 141.797 195.078 143.609C195.703 145.422 196.547 146.875 197.609 147.969C198.703 149.062 199.953 149.844 201.359 150.312C202.766 150.781 204.281 151.016 205.906 151.016C210.031 151.016 213.281 150.219 215.656 148.625C218.062 147.031 219.766 144.938 220.766 142.344C221.797 139.719 222.312 136.906 222.312 133.906ZM272.422 145.906V119.75C272.422 117.344 271.922 115.266 270.922 113.516C269.922 111.766 268.453 110.422 266.516 109.484C264.578 108.547 262.188 108.078 259.344 108.078C256.719 108.078 254.375 108.547 252.312 109.484C250.281 110.391 248.672 111.625 247.484 113.188C246.328 114.719 245.75 116.422 245.75 118.297L240.125 118.25C240.125 116.344 240.594 114.5 241.531 112.719C242.469 110.938 243.797 109.344 245.516 107.938C247.234 106.531 249.281 105.422 251.656 104.609C254.062 103.766 256.703 103.344 259.578 103.344C263.203 103.344 266.391 103.953 269.141 105.172C271.922 106.391 274.094 108.219 275.656 110.656C277.219 113.094 278 116.156 278 119.844V144.359C278 146.109 278.125 147.922 278.375 149.797C278.656 151.672 279.047 153.219 279.547 154.438V155H273.594C273.219 153.875 272.922 152.469 272.703 150.781C272.516 149.062 272.422 147.438 272.422 145.906ZM273.734 125.469L273.828 129.781H262.812C259.938 129.781 257.359 130.047 255.078 130.578C252.828 131.078 250.922 131.828 249.359 132.828C247.797 133.797 246.594 134.969 245.75 136.344C244.938 137.719 244.531 139.281 244.531 141.031C244.531 142.844 244.984 144.5 245.891 146C246.828 147.5 248.141 148.703 249.828 149.609C251.547 150.484 253.578 150.922 255.922 150.922C259.047 150.922 261.797 150.344 264.172 149.188C266.578 148.031 268.562 146.516 270.125 144.641C271.688 142.766 272.734 140.719 273.266 138.5L275.703 141.734C275.297 143.297 274.547 144.906 273.453 146.562C272.391 148.188 271 149.719 269.281 151.156C267.562 152.562 265.531 153.719 263.188 154.625C260.875 155.5 258.25 155.938 255.312 155.938C252 155.938 249.109 155.312 246.641 154.062C244.203 152.812 242.297 151.109 240.922 148.953C239.578 146.766 238.906 144.297 238.906 141.547C238.906 139.047 239.438 136.812 240.5 134.844C241.562 132.844 243.094 131.156 245.094 129.781C247.125 128.375 249.562 127.312 252.406 126.594C255.281 125.844 258.5 125.469 262.062 125.469H273.734ZM326 145.156V83H331.625V155H326.375L326 145.156ZM290.797 130.156V129.172C290.797 125.234 291.25 121.688 292.156 118.531C293.062 115.344 294.359 112.625 296.047 110.375C297.766 108.094 299.828 106.359 302.234 105.172C304.641 103.953 307.359 103.344 310.391 103.344C313.359 103.344 315.984 103.828 318.266 104.797C320.547 105.766 322.5 107.156 324.125 108.969C325.781 110.781 327.109 112.938 328.109 115.438C329.141 117.938 329.891 120.719 330.359 123.781V136.297C329.984 139.172 329.297 141.812 328.297 144.219C327.297 146.594 325.969 148.672 324.312 150.453C322.656 152.203 320.656 153.562 318.312 154.531C316 155.469 313.328 155.938 310.297 155.938C307.297 155.938 304.594 155.312 302.188 154.062C299.781 152.812 297.734 151.047 296.047 148.766C294.359 146.453 293.062 143.719 292.156 140.562C291.25 137.406 290.797 133.938 290.797 130.156ZM296.422 129.172V130.156C296.422 133.125 296.719 135.875 297.312 138.406C297.906 140.938 298.812 143.141 300.031 145.016C301.25 146.891 302.797 148.359 304.672 149.422C306.547 150.484 308.766 151.016 311.328 151.016C314.547 151.016 317.25 150.406 319.438 149.188C321.625 147.938 323.375 146.297 324.688 144.266C326 142.203 326.953 139.953 327.547 137.516V122.938C327.172 121.281 326.625 119.594 325.906 117.875C325.188 116.156 324.203 114.578 322.953 113.141C321.734 111.672 320.172 110.5 318.266 109.625C316.391 108.719 314.109 108.266 311.422 108.266C308.828 108.266 306.594 108.797 304.719 109.859C302.844 110.922 301.281 112.406 300.031 114.312C298.812 116.188 297.906 118.391 297.312 120.922C296.719 123.453 296.422 126.203 296.422 129.172Z" fill="#FF4F00"/>
<path d="M725.201 143.576H702.738V129.408H725.201C728.673 129.408 731.498 128.843 733.678 127.713C735.857 126.542 737.452 124.928 738.461 122.869C739.47 120.811 739.975 118.49 739.975 115.906C739.975 113.283 739.47 110.84 738.461 108.58C737.452 106.32 735.857 104.503 733.678 103.131C731.498 101.758 728.673 101.072 725.201 101.072H709.035V175H690.871V86.8438H725.201C732.104 86.8438 738.017 88.095 742.941 90.5976C747.906 93.0598 751.701 96.4706 754.324 100.83C756.948 105.189 758.26 110.174 758.26 115.785C758.26 121.477 756.948 126.401 754.324 130.559C751.701 134.716 747.906 137.925 742.941 140.186C738.017 142.446 732.104 143.576 725.201 143.576ZM796.586 101.92L772.609 175H753.295L786.051 86.8438H798.342L796.586 101.92ZM816.506 175L792.469 101.92L790.531 86.8438H802.943L835.881 175H816.506ZM815.416 142.184V156.412H768.855V142.184H815.416ZM848.172 86.8438L866.578 127.047L884.984 86.8438H904.783L875.781 142.91V175H857.375V142.91L828.312 86.8438H848.172Z" fill="#FF4F00"/>
</g>
</g>
<defs>
<clipPath id="clip0_5720_59">
<rect width="1025" height="246" fill="white"/>
</clipPath>
</defs>
</svg>
