<svg width="189" height="203" viewBox="0 0 189 203" fill="none" xmlns="http://www.w3.org/2000/svg">
<path d="M188.895 93.483C188.895 41.9935 146.618 0.25 94.4569 0.25C42.2969 0.25 0.0339355 41.9935 0.0339355 93.483C0.0339355 144.972 42.3109 186.716 94.4709 186.716C107.24 186.716 119.404 184.197 130.512 179.659L153.502 202.75L182.56 174.893L164.61 155.87C179.702 139.381 188.895 117.499 188.895 93.483ZM94.4709 147.917C73.5789 147.917 56.657 130.802 56.657 109.702C56.657 95.759 60.4439 72.753 79.4219 56.1214C74.3809 71.2737 79.4919 86.91 79.4919 86.91C88.1779 80.394 99.5249 46.0056 90.6979 24.3372C109.606 44.7252 118.433 81.66 114.646 105.875C122.206 94.408 121.023 72.824 121.023 72.824C129.85 86.839 132.3 95.617 132.3 109.702C132.286 130.816 115.349 147.917 94.4709 147.917Z" fill="#FF4F00"/>
</svg>
